<mxfile host="app.diagrams.net" modified="2021-06-29T08:56:08.738Z" agent="5.0 (Macintosh; Intel Mac OS X 10_15_7) AppleWebKit/537.36 (KHTML, like Gecko) Chrome/91.0.4472.106 Safari/537.36" etag="KHFiGJvxJYpd9z7eko1k" version="14.6.12" type="github">
  <diagram id="vauW5nEWK-6Akfxd-LXR" name="Page-1">
    <mxGraphModel dx="1395" dy="821" grid="1" gridSize="10" guides="1" tooltips="1" connect="1" arrows="1" fold="1" page="1" pageScale="1" pageWidth="850" pageHeight="1100" math="0" shadow="0">
      <root>
        <mxCell id="0" />
        <mxCell id="1" parent="0" />
        <mxCell id="fUj_M67MpqOmhO9p9qEh-1" value="" style="rounded=0;whiteSpace=wrap;html=1;" vertex="1" parent="1">
          <mxGeometry x="110" y="90" width="600" height="490" as="geometry" />
        </mxCell>
        <mxCell id="fUj_M67MpqOmhO9p9qEh-2" value="User A" style="shape=umlActor;verticalLabelPosition=bottom;verticalAlign=top;html=1;outlineConnect=0;" vertex="1" parent="1">
          <mxGeometry x="180" y="130" width="30" height="60" as="geometry" />
        </mxCell>
        <mxCell id="fUj_M67MpqOmhO9p9qEh-3" value="User B" style="shape=umlActor;verticalLabelPosition=bottom;verticalAlign=top;html=1;outlineConnect=0;" vertex="1" parent="1">
          <mxGeometry x="610" y="140" width="30" height="60" as="geometry" />
        </mxCell>
        <mxCell id="fUj_M67MpqOmhO9p9qEh-4" value="" style="strokeWidth=2;html=1;shape=mxgraph.flowchart.database;whiteSpace=wrap;" vertex="1" parent="1">
          <mxGeometry x="380" y="140" width="60" height="60" as="geometry" />
        </mxCell>
        <mxCell id="fUj_M67MpqOmhO9p9qEh-5" value="" style="shape=cylinder3;whiteSpace=wrap;html=1;boundedLbl=1;backgroundOutline=1;size=15;lid=0;" vertex="1" parent="1">
          <mxGeometry x="380" y="160" width="60" height="40" as="geometry" />
        </mxCell>
        <mxCell id="fUj_M67MpqOmhO9p9qEh-6" value="" style="endArrow=classic;html=1;" edge="1" parent="1">
          <mxGeometry relative="1" as="geometry">
            <mxPoint x="180" y="270" as="sourcePoint" />
            <mxPoint x="280" y="270" as="targetPoint" />
          </mxGeometry>
        </mxCell>
        <mxCell id="fUj_M67MpqOmhO9p9qEh-7" value="Sync request" style="edgeLabel;resizable=0;html=1;align=center;verticalAlign=middle;" connectable="0" vertex="1" parent="fUj_M67MpqOmhO9p9qEh-6">
          <mxGeometry relative="1" as="geometry" />
        </mxCell>
        <mxCell id="fUj_M67MpqOmhO9p9qEh-9" value="" style="endArrow=classic;html=1;" edge="1" parent="1">
          <mxGeometry relative="1" as="geometry">
            <mxPoint x="400" y="320" as="sourcePoint" />
            <mxPoint x="300" y="320" as="targetPoint" />
          </mxGeometry>
        </mxCell>
        <mxCell id="fUj_M67MpqOmhO9p9qEh-10" value="Sync response" style="edgeLabel;resizable=0;html=1;align=center;verticalAlign=middle;" connectable="0" vertex="1" parent="fUj_M67MpqOmhO9p9qEh-9">
          <mxGeometry relative="1" as="geometry" />
        </mxCell>
        <mxCell id="fUj_M67MpqOmhO9p9qEh-11" value="" style="endArrow=classic;html=1;" edge="1" parent="1">
          <mxGeometry relative="1" as="geometry">
            <mxPoint x="180" y="380" as="sourcePoint" />
            <mxPoint x="280" y="380" as="targetPoint" />
          </mxGeometry>
        </mxCell>
        <mxCell id="fUj_M67MpqOmhO9p9qEh-12" value="Sync request" style="edgeLabel;resizable=0;html=1;align=center;verticalAlign=middle;" connectable="0" vertex="1" parent="fUj_M67MpqOmhO9p9qEh-11">
          <mxGeometry relative="1" as="geometry" />
        </mxCell>
        <mxCell id="fUj_M67MpqOmhO9p9qEh-13" value="" style="endArrow=classic;html=1;" edge="1" parent="1">
          <mxGeometry relative="1" as="geometry">
            <mxPoint x="180" y="420" as="sourcePoint" />
            <mxPoint x="280" y="420" as="targetPoint" />
          </mxGeometry>
        </mxCell>
        <mxCell id="fUj_M67MpqOmhO9p9qEh-14" value="Offline now" style="edgeLabel;resizable=0;html=1;align=center;verticalAlign=middle;" connectable="0" vertex="1" parent="fUj_M67MpqOmhO9p9qEh-13">
          <mxGeometry relative="1" as="geometry" />
        </mxCell>
        <mxCell id="fUj_M67MpqOmhO9p9qEh-16" value="" style="endArrow=classic;html=1;" edge="1" parent="1">
          <mxGeometry relative="1" as="geometry">
            <mxPoint x="400" y="490" as="sourcePoint" />
            <mxPoint x="300" y="490" as="targetPoint" />
          </mxGeometry>
        </mxCell>
        <mxCell id="fUj_M67MpqOmhO9p9qEh-17" value="Sync response" style="edgeLabel;resizable=0;html=1;align=center;verticalAlign=middle;" connectable="0" vertex="1" parent="fUj_M67MpqOmhO9p9qEh-16">
          <mxGeometry relative="1" as="geometry" />
        </mxCell>
        <mxCell id="fUj_M67MpqOmhO9p9qEh-18" value="" style="endArrow=classic;html=1;" edge="1" parent="1">
          <mxGeometry relative="1" as="geometry">
            <mxPoint x="470" y="460.0000000000001" as="sourcePoint" />
            <mxPoint x="570" y="460.0000000000001" as="targetPoint" />
          </mxGeometry>
        </mxCell>
        <mxCell id="fUj_M67MpqOmhO9p9qEh-19" value="User A is offline" style="edgeLabel;resizable=0;html=1;align=center;verticalAlign=middle;" connectable="0" vertex="1" parent="fUj_M67MpqOmhO9p9qEh-18">
          <mxGeometry relative="1" as="geometry" />
        </mxCell>
        <mxCell id="fUj_M67MpqOmhO9p9qEh-20" value="" style="endArrow=classic;html=1;" edge="1" parent="1">
          <mxGeometry relative="1" as="geometry">
            <mxPoint x="470" y="540.0000000000001" as="sourcePoint" />
            <mxPoint x="570" y="540.0000000000001" as="targetPoint" />
          </mxGeometry>
        </mxCell>
        <mxCell id="fUj_M67MpqOmhO9p9qEh-21" value="User A is online" style="edgeLabel;resizable=0;html=1;align=center;verticalAlign=middle;" connectable="0" vertex="1" parent="fUj_M67MpqOmhO9p9qEh-20">
          <mxGeometry relative="1" as="geometry" />
        </mxCell>
        <mxCell id="fUj_M67MpqOmhO9p9qEh-22" value="Matrix Server" style="text;html=1;strokeColor=none;fillColor=none;align=center;verticalAlign=middle;whiteSpace=wrap;rounded=0;" vertex="1" parent="1">
          <mxGeometry x="370" y="200" width="80" height="20" as="geometry" />
        </mxCell>
      </root>
    </mxGraphModel>
  </diagram>
</mxfile>
